<svg class="border shadow-md" viewBox="0 0 552.64 552.64" style="width: 552.64px; height: 552.64px;" xmlns="http://www.w3.org/2000/svg" preserveAspectRatio="none"><rect class="bg" id="bg" x="0" y="0" width="552.64" height="552.64" fill="#ffffff"></rect><path d="M 0 -16.254117647058823 L 0 -16.25
                L 30.70 -8.13
                L 92.10666666666667 -16.25 L 92.10666666666667 -16.25
                L 122.81 -1.25
                L 184.21333333333334 -16.25 L 184.21333333333334 -16.25
                L 223.21 -8.13
                L 276.32 -16.25 L 276.32 -16.25
                L 307.02 -3.25
                L 368.4266666666667 -16.25 L 368.4266666666667 -16.25
                L 399.13 -6.25
                L 460.53333333333336 -16.25 L 460.53333333333336 -16.25
                L 491.24 -8.13
                L 552.64 -16.25 L 552.64 -16.25
                L 583.34 -8.13
                L 644.7466666666667 -16.25  V 552.64 H 0 V -16.25 Z" fill="#FF4E16"></path><path d="M 0 0 L 0 0.00
                L 30.70 10.00
                L 92.10666666666667 0.00 L 92.10666666666667 0.00
                L 122.81 10.00
                L 184.21333333333334 0.00 L 184.21333333333334 0.00
                L 216.21 8.13
                L 276.32 0.00 L 276.32 0.00
                L 323.32 8.13
                L 368.4266666666667 0.00 L 368.4266666666667 0.00
                L 400.43 8.13
                L 460.53333333333336 0.00 L 460.53333333333336 0.00
                L 512.53 9.00
                L 552.64 0.00 L 552.64 0.00
                L 595.64 8.13
                L 644.7466666666667 0.00  V 552.64 H 0 V 0.00 Z" fill="#f94c1a"></path><path d="M 0 16.254117647058823 L 0 16.25
                L 64.00 24.38
                L 92.10666666666667 16.25 L 92.10666666666667 16.25
                L 122.81 25.25
                L 184.21333333333334 16.25 L 184.21333333333334 16.25
                L 214.92 25.25
                L 276.32 16.25 L 276.32 16.25
                L 335.32 30.25
                L 368.4266666666667 16.25 L 368.4266666666667 16.25
                L 399.13 26.25
                L 460.53333333333336 16.25 L 460.53333333333336 16.25
                L 491.24 26.25
                L 552.64 16.25 L 552.64 16.25
                L 585.64 31.25
                L 644.7466666666667 16.25  V 552.64 H 0 V 16.25 Z" fill="#f34a1e"></path><path d="M 0 32.50823529411765 L 0 32.51
                L 48.00 44.51
                L 92.10666666666667 32.51 L 92.10666666666667 32.51
                L 144.11 40.64
                L 184.21333333333334 32.51 L 184.21333333333334 32.51
                L 223.21 47.51
                L 276.32 32.51 L 276.32 32.51
                L 307.02 42.51
                L 368.4266666666667 32.51 L 368.4266666666667 32.51
                L 399.13 40.64
                L 460.53333333333336 32.51 L 460.53333333333336 32.51
                L 495.53 40.64
                L 552.64 32.51 L 552.64 32.51
                L 583.34 40.64
                L 644.7466666666667 32.51  V 552.64 H 0 V 32.51 Z" fill="#ed4822"></path><path d="M 0 48.762352941176474 L 0 48.76
                L 55.00 56.89
                L 92.10666666666667 48.76 L 92.10666666666667 48.76
                L 155.11 58.76
                L 184.21333333333334 48.76 L 184.21333333333334 48.76
                L 252.21 56.89
                L 276.32 48.76 L 276.32 48.76
                L 327.32 62.76
                L 368.4266666666667 48.76 L 368.4266666666667 48.76
                L 399.13 56.89
                L 460.53333333333336 48.76 L 460.53333333333336 48.76
                L 523.53 61.76
                L 552.64 48.76 L 552.64 48.76
                L 620.64 56.89
                L 644.7466666666667 48.76  V 552.64 H 0 V 48.76 Z" fill="#e74626"></path><path d="M 0 65.0164705882353 L 0 65.02
                L 30.70 73.14
                L 92.10666666666667 65.02 L 92.10666666666667 65.02
                L 122.81 74.02
                L 184.21333333333334 65.02 L 184.21333333333334 65.02
                L 228.21 73.14
                L 276.32 65.02 L 276.32 65.02
                L 307.02 76.02
                L 368.4266666666667 65.02 L 368.4266666666667 65.02
                L 430.43 73.14
                L 460.53333333333336 65.02 L 460.53333333333336 65.02
                L 493.53 76.02
                L 552.64 65.02 L 552.64 65.02
                L 583.64 73.14
                L 644.7466666666667 65.02  V 552.64 H 0 V 65.02 Z" fill="#e1442a"></path><path d="M 0 81.27058823529411 L 0 81.27
                L 56.00 94.27
                L 92.10666666666667 81.27 L 92.10666666666667 81.27
                L 141.11 95.27
                L 184.21333333333334 81.27 L 184.21333333333334 81.27
                L 237.21 89.40
                L 276.32 81.27 L 276.32 81.27
                L 307.02 90.27
                L 368.4266666666667 81.27 L 368.4266666666667 81.27
                L 399.13 89.40
                L 460.53333333333336 81.27 L 460.53333333333336 81.27
                L 504.53 90.27
                L 552.64 81.27 L 552.64 81.27
                L 583.34 90.27
                L 644.7466666666667 81.27  V 552.64 H 0 V 81.27 Z" fill="#db422e"></path><path d="M 0 97.52470588235295 L 0 97.52
                L 52.00 111.52
                L 92.10666666666667 97.52 L 92.10666666666667 97.52
                L 122.81 108.52
                L 184.21333333333334 97.52 L 184.21333333333334 97.52
                L 214.92 105.65
                L 276.32 97.52 L 276.32 97.52
                L 307.32 105.65
                L 368.4266666666667 97.52 L 368.4266666666667 97.52
                L 399.13 106.52
                L 460.53333333333336 97.52 L 460.53333333333336 97.52
                L 524.53 105.65
                L 552.64 97.52 L 552.64 97.52
                L 583.34 108.52
                L 644.7466666666667 97.52  V 552.64 H 0 V 97.52 Z" fill="#d54032"></path><path d="M 0 113.77882352941177 L 0 113.78
                L 60.00 121.91
                L 92.10666666666667 113.78 L 92.10666666666667 113.78
                L 122.81 125.78
                L 184.21333333333334 113.78 L 184.21333333333334 113.78
                L 214.92 121.91
                L 276.32 113.78 L 276.32 113.78
                L 307.02 121.91
                L 368.4266666666667 113.78 L 368.4266666666667 113.78
                L 399.13 121.91
                L 460.53333333333336 113.78 L 460.53333333333336 113.78
                L 500.53 121.91
                L 552.64 113.78 L 552.64 113.78
                L 584.64 124.78
                L 644.7466666666667 113.78  V 552.64 H 0 V 113.78 Z" fill="#cf3e36"></path><path d="M 0 130.0329411764706 L 0 130.03
                L 37.00 138.16
                L 92.10666666666667 130.03 L 92.10666666666667 130.03
                L 151.11 140.03
                L 184.21333333333334 130.03 L 184.21333333333334 130.03
                L 214.92 141.03
                L 276.32 130.03 L 276.32 130.03
                L 309.32 141.03
                L 368.4266666666667 130.03 L 368.4266666666667 130.03
                L 430.43 139.03
                L 460.53333333333336 130.03 L 460.53333333333336 130.03
                L 491.53 145.03
                L 552.64 130.03 L 552.64 130.03
                L 619.64 144.03
                L 644.7466666666667 130.03  V 552.64 H 0 V 130.03 Z" fill="#c93c3a"></path><path d="M 0 146.2870588235294 L 0 146.29
                L 53.00 154.41
                L 92.10666666666667 146.29 L 92.10666666666667 146.29
                L 122.81 154.41
                L 184.21333333333334 146.29 L 184.21333333333334 146.29
                L 214.92 157.29
                L 276.32 146.29 L 276.32 146.29
                L 322.32 154.41
                L 368.4266666666667 146.29 L 368.4266666666667 146.29
                L 399.13 159.29
                L 460.53333333333336 146.29 L 460.53333333333336 146.29
                L 491.24 154.41
                L 552.64 146.29 L 552.64 146.29
                L 601.64 158.29
                L 644.7466666666667 146.29  V 552.64 H 0 V 146.29 Z" fill="#c33a3e"></path><path d="M 0 162.54117647058823 L 0 162.54
                L 30.70 178.54
                L 92.10666666666667 162.54 L 92.10666666666667 162.54
                L 122.81 172.54
                L 184.21333333333334 162.54 L 184.21333333333334 162.54
                L 240.21 170.67
                L 276.32 162.54 L 276.32 162.54
                L 322.32 174.54
                L 368.4266666666667 162.54 L 368.4266666666667 162.54
                L 399.13 170.67
                L 460.53333333333336 162.54 L 460.53333333333336 162.54
                L 491.24 170.67
                L 552.64 162.54 L 552.64 162.54
                L 593.64 170.67
                L 644.7466666666667 162.54  V 552.64 H 0 V 162.54 Z" fill="#bd3842"></path><path d="M 0 178.79529411764705 L 0 178.80
                L 30.70 186.92
                L 92.10666666666667 178.80 L 92.10666666666667 178.80
                L 122.81 188.80
                L 184.21333333333334 178.80 L 184.21333333333334 178.80
                L 214.92 189.80
                L 276.32 178.80 L 276.32 178.80
                L 340.32 187.80
                L 368.4266666666667 178.80 L 368.4266666666667 178.80
                L 409.43 186.92
                L 460.53333333333336 178.80 L 460.53333333333336 178.80
                L 491.24 190.80
                L 552.64 178.80 L 552.64 178.80
                L 619.64 188.80
                L 644.7466666666667 178.80  V 552.64 H 0 V 178.80 Z" fill="#b73646"></path><path d="M 0 195.0494117647059 L 0 195.05
                L 30.70 205.05
                L 92.10666666666667 195.05 L 92.10666666666667 195.05
                L 122.81 209.05
                L 184.21333333333334 195.05 L 184.21333333333334 195.05
                L 230.21 210.05
                L 276.32 195.05 L 276.32 195.05
                L 344.32 205.05
                L 368.4266666666667 195.05 L 368.4266666666667 195.05
                L 416.43 210.05
                L 460.53333333333336 195.05 L 460.53333333333336 195.05
                L 499.53 203.18
                L 552.64 195.05 L 552.64 195.05
                L 583.34 207.05
                L 644.7466666666667 195.05  V 552.64 H 0 V 195.05 Z" fill="#b1344a"></path><path d="M 0 211.3035294117647 L 0 211.30
                L 30.70 219.43
                L 92.10666666666667 211.30 L 92.10666666666667 211.30
                L 150.11 219.43
                L 184.21333333333334 211.30 L 184.21333333333334 211.30
                L 238.21 219.43
                L 276.32 211.30 L 276.32 211.30
                L 319.32 219.43
                L 368.4266666666667 211.30 L 368.4266666666667 211.30
                L 407.43 223.30
                L 460.53333333333336 211.30 L 460.53333333333336 211.30
                L 491.24 219.43
                L 552.64 211.30 L 552.64 211.30
                L 587.64 222.30
                L 644.7466666666667 211.30  V 552.64 H 0 V 211.30 Z" fill="#ab324e"></path><path d="M 0 227.55764705882353 L 0 227.56
                L 62.00 237.56
                L 92.10666666666667 227.56 L 92.10666666666667 227.56
                L 130.11 238.56
                L 184.21333333333334 227.56 L 184.21333333333334 227.56
                L 225.21 235.68
                L 276.32 227.56 L 276.32 227.56
                L 307.02 235.68
                L 368.4266666666667 227.56 L 368.4266666666667 227.56
                L 399.13 242.56
                L 460.53333333333336 227.56 L 460.53333333333336 227.56
                L 491.24 235.68
                L 552.64 227.56 L 552.64 227.56
                L 615.64 235.68
                L 644.7466666666667 227.56  V 552.64 H 0 V 227.56 Z" fill="#a53052"></path><path d="M 0 243.81176470588235 L 0 243.81
                L 31.00 257.81
                L 92.10666666666667 243.81 L 92.10666666666667 243.81
                L 122.81 251.94
                L 184.21333333333334 243.81 L 184.21333333333334 243.81
                L 228.21 259.81
                L 276.32 243.81 L 276.32 243.81
                L 307.02 255.81
                L 368.4266666666667 243.81 L 368.4266666666667 243.81
                L 414.43 251.94
                L 460.53333333333336 243.81 L 460.53333333333336 243.81
                L 491.24 257.81
                L 552.64 243.81 L 552.64 243.81
                L 589.64 251.94
                L 644.7466666666667 243.81  V 552.64 H 0 V 243.81 Z" fill="#9f2e56"></path><path d="M 0 260.0658823529412 L 0 260.07
                L 45.00 268.19
                L 92.10666666666667 260.07 L 92.10666666666667 260.07
                L 142.11 268.19
                L 184.21333333333334 260.07 L 184.21333333333334 260.07
                L 250.21 273.07
                L 276.32 260.07 L 276.32 260.07
                L 307.02 270.07
                L 368.4266666666667 260.07 L 368.4266666666667 260.07
                L 426.43 274.07
                L 460.53333333333336 260.07 L 460.53333333333336 260.07
                L 526.53 271.07
                L 552.64 260.07 L 552.64 260.07
                L 591.64 270.07
                L 644.7466666666667 260.07  V 552.64 H 0 V 260.07 Z" fill="#992c5a"></path><path d="M 0 276.32 L 0 276.32
                L 30.70 284.45
                L 92.10666666666667 276.32 L 92.10666666666667 276.32
                L 155.11 284.45
                L 184.21333333333334 276.32 L 184.21333333333334 276.32
                L 247.21 288.32
                L 276.32 276.32 L 276.32 276.32
                L 307.02 289.32
                L 368.4266666666667 276.32 L 368.4266666666667 276.32
                L 406.43 284.45
                L 460.53333333333336 276.32 L 460.53333333333336 276.32
                L 525.53 285.32
                L 552.64 276.32 L 552.64 276.32
                L 598.64 288.32
                L 644.7466666666667 276.32  V 552.64 H 0 V 276.32 Z" fill="#932a5e"></path><path d="M 0 292.5741176470588 L 0 292.57
                L 40.00 306.57
                L 92.10666666666667 292.57 L 92.10666666666667 292.57
                L 122.81 300.70
                L 184.21333333333334 292.57 L 184.21333333333334 292.57
                L 214.92 300.70
                L 276.32 292.57 L 276.32 292.57
                L 313.32 300.70
                L 368.4266666666667 292.57 L 368.4266666666667 292.57
                L 399.13 300.70
                L 460.53333333333336 292.57 L 460.53333333333336 292.57
                L 505.53 304.57
                L 552.64 292.57 L 552.64 292.57
                L 583.34 300.70
                L 644.7466666666667 292.57  V 552.64 H 0 V 292.57 Z" fill="#8d2862"></path><path d="M 0 308.82823529411763 L 0 308.83
                L 58.00 323.83
                L 92.10666666666667 308.83 L 92.10666666666667 308.83
                L 122.81 322.83
                L 184.21333333333334 308.83 L 184.21333333333334 308.83
                L 232.21 316.96
                L 276.32 308.83 L 276.32 308.83
                L 308.32 316.96
                L 368.4266666666667 308.83 L 368.4266666666667 308.83
                L 399.13 320.83
                L 460.53333333333336 308.83 L 460.53333333333336 308.83
                L 491.24 318.83
                L 552.64 308.83 L 552.64 308.83
                L 583.34 321.83
                L 644.7466666666667 308.83  V 552.64 H 0 V 308.83 Z" fill="#872666"></path><path d="M 0 325.08235294117645 L 0 325.08
                L 34.00 341.08
                L 92.10666666666667 325.08 L 92.10666666666667 325.08
                L 122.81 334.08
                L 184.21333333333334 325.08 L 184.21333333333334 325.08
                L 236.21 333.21
                L 276.32 325.08 L 276.32 325.08
                L 320.32 333.21
                L 368.4266666666667 325.08 L 368.4266666666667 325.08
                L 405.43 340.08
                L 460.53333333333336 325.08 L 460.53333333333336 325.08
                L 491.53 341.08
                L 552.64 325.08 L 552.64 325.08
                L 601.64 338.08
                L 644.7466666666667 325.08  V 552.64 H 0 V 325.08 Z" fill="#81246a"></path><path d="M 0 341.3364705882353 L 0 341.34
                L 62.00 349.46
                L 92.10666666666667 341.34 L 92.10666666666667 341.34
                L 139.11 349.46
                L 184.21333333333334 341.34 L 184.21333333333334 341.34
                L 214.92 349.46
                L 276.32 341.34 L 276.32 341.34
                L 335.32 349.46
                L 368.4266666666667 341.34 L 368.4266666666667 341.34
                L 399.13 349.46
                L 460.53333333333336 341.34 L 460.53333333333336 341.34
                L 493.53 349.46
                L 552.64 341.34 L 552.64 341.34
                L 583.34 356.34
                L 644.7466666666667 341.34  V 552.64 H 0 V 341.34 Z" fill="#7b226e"></path><path d="M 0 357.5905882352941 L 0 357.59
                L 44.00 371.59
                L 92.10666666666667 357.59 L 92.10666666666667 357.59
                L 122.81 365.72
                L 184.21333333333334 357.59 L 184.21333333333334 357.59
                L 214.92 365.72
                L 276.32 357.59 L 276.32 357.59
                L 326.32 371.59
                L 368.4266666666667 357.59 L 368.4266666666667 357.59
                L 414.43 370.59
                L 460.53333333333336 357.59 L 460.53333333333336 357.59
                L 491.24 365.72
                L 552.64 357.59 L 552.64 357.59
                L 610.64 365.72
                L 644.7466666666667 357.59  V 552.64 H 0 V 357.59 Z" fill="#752072"></path><path d="M 0 373.8447058823529 L 0 373.84
                L 53.00 381.97
                L 92.10666666666667 373.84 L 92.10666666666667 373.84
                L 150.11 381.97
                L 184.21333333333334 373.84 L 184.21333333333334 373.84
                L 216.21 388.84
                L 276.32 373.84 L 276.32 373.84
                L 307.02 381.97
                L 368.4266666666667 373.84 L 368.4266666666667 373.84
                L 399.13 387.84
                L 460.53333333333336 373.84 L 460.53333333333336 373.84
                L 499.53 381.97
                L 552.64 373.84 L 552.64 373.84
                L 586.64 381.97
                L 644.7466666666667 373.84  V 552.64 H 0 V 373.84 Z" fill="#6f1e76"></path><path d="M 0 390.0988235294118 L 0 390.10
                L 56.00 398.23
                L 92.10666666666667 390.10 L 92.10666666666667 390.10
                L 131.11 401.10
                L 184.21333333333334 390.10 L 184.21333333333334 390.10
                L 214.92 398.23
                L 276.32 390.10 L 276.32 390.10
                L 334.32 398.23
                L 368.4266666666667 390.10 L 368.4266666666667 390.10
                L 399.13 398.23
                L 460.53333333333336 390.10 L 460.53333333333336 390.10
                L 509.53 405.10
                L 552.64 390.10 L 552.64 390.10
                L 585.64 398.23
                L 644.7466666666667 390.10  V 552.64 H 0 V 390.10 Z" fill="#691c7a"></path><path d="M 0 406.3529411764706 L 0 406.35
                L 30.70 420.35
                L 92.10666666666667 406.35 L 92.10666666666667 406.35
                L 145.11 418.35
                L 184.21333333333334 406.35 L 184.21333333333334 406.35
                L 214.92 416.35
                L 276.32 406.35 L 276.32 406.35
                L 329.32 419.35
                L 368.4266666666667 406.35 L 368.4266666666667 406.35
                L 418.43 414.48
                L 460.53333333333336 406.35 L 460.53333333333336 406.35
                L 491.24 415.35
                L 552.64 406.35 L 552.64 406.35
                L 583.34 422.35
                L 644.7466666666667 406.35  V 552.64 H 0 V 406.35 Z" fill="#631a7e"></path><path d="M 0 422.6070588235294 L 0 422.61
                L 30.70 436.61
                L 92.10666666666667 422.61 L 92.10666666666667 422.61
                L 158.11 435.61
                L 184.21333333333334 422.61 L 184.21333333333334 422.61
                L 229.21 430.73
                L 276.32 422.61 L 276.32 422.61
                L 332.32 436.61
                L 368.4266666666667 422.61 L 368.4266666666667 422.61
                L 431.43 437.61
                L 460.53333333333336 422.61 L 460.53333333333336 422.61
                L 491.24 430.73
                L 552.64 422.61 L 552.64 422.61
                L 600.64 436.61
                L 644.7466666666667 422.61  V 552.64 H 0 V 422.61 Z" fill="#5d1882"></path><path d="M 0 438.86117647058825 L 0 438.86
                L 30.70 446.99
                L 92.10666666666667 438.86 L 92.10666666666667 438.86
                L 122.81 453.86
                L 184.21333333333334 438.86 L 184.21333333333334 438.86
                L 225.21 446.99
                L 276.32 438.86 L 276.32 438.86
                L 319.32 446.99
                L 368.4266666666667 438.86 L 368.4266666666667 438.86
                L 399.13 446.99
                L 460.53333333333336 438.86 L 460.53333333333336 438.86
                L 506.53 449.86
                L 552.64 438.86 L 552.64 438.86
                L 583.34 449.86
                L 644.7466666666667 438.86  V 552.64 H 0 V 438.86 Z" fill="#571686"></path><path d="M 0 455.11529411764707 L 0 455.12
                L 30.70 463.24
                L 92.10666666666667 455.12 L 92.10666666666667 455.12
                L 124.11 468.12
                L 184.21333333333334 455.12 L 184.21333333333334 455.12
                L 223.21 468.12
                L 276.32 455.12 L 276.32 455.12
                L 307.02 468.12
                L 368.4266666666667 455.12 L 368.4266666666667 455.12
                L 407.43 468.12
                L 460.53333333333336 455.12 L 460.53333333333336 455.12
                L 523.53 463.24
                L 552.64 455.12 L 552.64 455.12
                L 603.64 463.24
                L 644.7466666666667 455.12  V 552.64 H 0 V 455.12 Z" fill="#51148a"></path><path d="M 0 471.3694117647059 L 0 471.37
                L 30.70 486.37
                L 92.10666666666667 471.37 L 92.10666666666667 471.37
                L 122.81 479.50
                L 184.21333333333334 471.37 L 184.21333333333334 471.37
                L 214.92 479.50
                L 276.32 471.37 L 276.32 471.37
                L 334.32 479.50
                L 368.4266666666667 471.37 L 368.4266666666667 471.37
                L 399.13 481.37
                L 460.53333333333336 471.37 L 460.53333333333336 471.37
                L 491.24 479.50
                L 552.64 471.37 L 552.64 471.37
                L 602.64 479.50
                L 644.7466666666667 471.37  V 552.64 H 0 V 471.37 Z" fill="#4b128e"></path><path d="M 0 487.6235294117647 L 0 487.62
                L 30.70 499.62
                L 92.10666666666667 487.62 L 92.10666666666667 487.62
                L 136.11 499.62
                L 184.21333333333334 487.62 L 184.21333333333334 487.62
                L 225.21 499.62
                L 276.32 487.62 L 276.32 487.62
                L 307.02 501.62
                L 368.4266666666667 487.62 L 368.4266666666667 487.62
                L 399.13 495.75
                L 460.53333333333336 487.62 L 460.53333333333336 487.62
                L 491.24 496.62
                L 552.64 487.62 L 552.64 487.62
                L 593.64 495.75
                L 644.7466666666667 487.62  V 552.64 H 0 V 487.62 Z" fill="#451092"></path><path d="M 0 503.8776470588235 L 0 503.88
                L 30.70 512.00
                L 92.10666666666667 503.88 L 92.10666666666667 503.88
                L 123.11 512.00
                L 184.21333333333334 503.88 L 184.21333333333334 503.88
                L 242.21 518.88
                L 276.32 503.88 L 276.32 503.88
                L 307.02 512.00
                L 368.4266666666667 503.88 L 368.4266666666667 503.88
                L 399.13 512.00
                L 460.53333333333336 503.88 L 460.53333333333336 503.88
                L 501.53 512.00
                L 552.64 503.88 L 552.64 503.88
                L 607.64 517.88
                L 644.7466666666667 503.88  V 552.64 H 0 V 503.88 Z" fill="#3f0e96"></path><path d="M 0 520.1317647058823 L 0 520.13
                L 30.70 528.26
                L 92.10666666666667 520.13 L 92.10666666666667 520.13
                L 122.81 528.26
                L 184.21333333333334 520.13 L 184.21333333333334 520.13
                L 241.21 528.26
                L 276.32 520.13 L 276.32 520.13
                L 307.02 528.26
                L 368.4266666666667 520.13 L 368.4266666666667 520.13
                L 419.43 529.13
                L 460.53333333333336 520.13 L 460.53333333333336 520.13
                L 510.53 528.26
                L 552.64 520.13 L 552.64 520.13
                L 583.34 533.13
                L 644.7466666666667 520.13  V 552.64 H 0 V 520.13 Z" fill="#390c9a"></path><path d="M 0 536.3858823529412 L 0 536.39
                L 63.00 544.51
                L 92.10666666666667 536.39 L 92.10666666666667 536.39
                L 136.11 550.39
                L 184.21333333333334 536.39 L 184.21333333333334 536.39
                L 237.21 544.51
                L 276.32 536.39 L 276.32 536.39
                L 307.02 551.39
                L 368.4266666666667 536.39 L 368.4266666666667 536.39
                L 419.43 544.51
                L 460.53333333333336 536.39 L 460.53333333333336 536.39
                L 491.24 549.39
                L 552.64 536.39 L 552.64 536.39
                L 620.64 544.51
                L 644.7466666666667 536.39  V 552.64 H 0 V 536.39 Z" fill="#330a9e"></path></svg>