<svg class="border shadow-md" viewBox="0 0 552.64 552.64" style="width: 552.64px; height: 552.64px;" xmlns="http://www.w3.org/2000/svg" preserveAspectRatio="none"><rect class="bg" id="bg" x="0" y="0" width="552.64" height="552.64" fill="#4311A4"></rect><path d="M 0 -26.316190476190474 L 0 -26.32
                L 23.03 -13.16
                L 69.08 -26.32 L 69.08 -26.32
                L 92.11 -13.16
                L 138.16 -26.32 L 138.16 -26.32
                L 167.16 -13.16
                L 207.24 -26.32 L 207.24 -26.32
                L 230.27 -13.16
                L 276.32 -26.32 L 276.32 -26.32
                L 299.35 -4.32
                L 345.4 -26.32 L 345.4 -26.32
                L 388.40 -8.32
                L 414.47999999999996 -26.32 L 414.48 -26.32
                L 454.48 -3.32
                L 483.56 -26.32 L 483.56 -26.32
                L 506.59 -13.16
                L 552.64 -26.32 L 552.64 -26.32
                L 587.64 -13.16
                L 621.72 -26.32  V 552.64 H 0 V -26.32 Z" fill="#FF4E16"></path><path d="M 0 0 L 0 0.00
                L 23.03 13.16
                L 69.08 0.00 L 69.08 0.00
                L 92.11 13.16
                L 138.16 0.00 L 138.16 0.00
                L 181.16 24.00
                L 207.24 0.00 L 207.24 0.00
                L 247.24 13.16
                L 276.32 0.00 L 276.32 0.00
                L 323.32 25.00
                L 345.4 0.00 L 345.4 0.00
                L 371.40 14.00
                L 414.47999999999996 0.00 L 414.48 0.00
                L 437.51 13.16
                L 483.56 0.00 L 483.56 0.00
                L 521.56 16.00
                L 552.64 0.00 L 552.64 0.00
                L 575.67 13.16
                L 621.72 0.00  V 552.64 H 0 V 0.00 Z" fill="#f64b1c"></path><path d="M 0 26.316190476190474 L 0 26.32
                L 23.03 48.32
                L 69.08 26.32 L 69.08 26.32
                L 117.08 39.47
                L 138.16 26.32 L 138.16 26.32
                L 161.19 50.32
                L 207.24 26.32 L 207.24 26.32
                L 232.24 39.47
                L 276.32 26.32 L 276.32 26.32
                L 306.32 39.47
                L 345.4 26.32 L 345.4 26.32
                L 368.43 39.47
                L 414.47999999999996 26.32 L 414.48 26.32
                L 437.51 46.32
                L 483.56 26.32 L 483.56 26.32
                L 506.59 39.47
                L 552.64 26.32 L 552.64 26.32
                L 575.67 45.32
                L 621.72 26.32  V 552.64 H 0 V 26.32 Z" fill="#ed4822"></path><path d="M 0 52.63238095238095 L 0 52.63
                L 32.00 67.63
                L 69.08 52.63 L 69.08 52.63
                L 106.08 65.79
                L 138.16 52.63 L 138.16 52.63
                L 176.16 73.63
                L 207.24 52.63 L 207.24 52.63
                L 230.27 65.79
                L 276.32 52.63 L 276.32 52.63
                L 316.32 65.79
                L 345.4 52.63 L 345.4 52.63
                L 374.40 65.79
                L 414.47999999999996 52.63 L 414.48 52.63
                L 455.48 65.79
                L 483.56 52.63 L 483.56 52.63
                L 506.59 65.79
                L 552.64 52.63 L 552.64 52.63
                L 575.67 65.79
                L 621.72 52.63  V 552.64 H 0 V 52.63 Z" fill="#e44528"></path><path d="M 0 78.94857142857143 L 0 78.95
                L 23.03 92.11
                L 69.08 78.95 L 69.08 78.95
                L 104.08 92.11
                L 138.16 78.95 L 138.16 78.95
                L 161.19 92.11
                L 207.24 78.95 L 207.24 78.95
                L 257.24 97.95
                L 276.32 78.95 L 276.32 78.95
                L 299.35 98.95
                L 345.4 78.95 L 345.4 78.95
                L 368.43 92.11
                L 414.47999999999996 78.95 L 414.48 78.95
                L 453.48 95.95
                L 483.56 78.95 L 483.56 78.95
                L 520.56 92.11
                L 552.64 78.95 L 552.64 78.95
                L 575.67 100.95
                L 621.72 78.95  V 552.64 H 0 V 78.95 Z" fill="#db422e"></path><path d="M 0 105.2647619047619 L 0 105.26
                L 36.00 118.42
                L 69.08 105.26 L 69.08 105.26
                L 93.08 118.42
                L 138.16 105.26 L 138.16 105.26
                L 184.16 125.26
                L 207.24 105.26 L 207.24 105.26
                L 239.24 118.42
                L 276.32 105.26 L 276.32 105.26
                L 303.32 128.26
                L 345.4 105.26 L 345.4 105.26
                L 379.40 128.26
                L 414.47999999999996 105.26 L 414.48 105.26
                L 444.48 125.26
                L 483.56 105.26 L 483.56 105.26
                L 506.59 127.26
                L 552.64 105.26 L 552.64 105.26
                L 575.67 118.42
                L 621.72 105.26  V 552.64 H 0 V 105.26 Z" fill="#d23f34"></path><path d="M 0 131.58095238095237 L 0 131.58
                L 36.00 150.58
                L 69.08 131.58 L 69.08 131.58
                L 119.08 149.58
                L 138.16 131.58 L 138.16 131.58
                L 161.19 144.74
                L 207.24 131.58 L 207.24 131.58
                L 230.27 144.74
                L 276.32 131.58 L 276.32 131.58
                L 299.35 144.74
                L 345.4 131.58 L 345.4 131.58
                L 368.43 152.58
                L 414.47999999999996 131.58 L 414.48 131.58
                L 456.48 144.74
                L 483.56 131.58 L 483.56 131.58
                L 506.59 144.74
                L 552.64 131.58 L 552.64 131.58
                L 575.67 144.74
                L 621.72 131.58  V 552.64 H 0 V 131.58 Z" fill="#c93c3a"></path><path d="M 0 157.89714285714285 L 0 157.90
                L 32.00 177.90
                L 69.08 157.90 L 69.08 157.90
                L 117.08 171.06
                L 138.16 157.90 L 138.16 157.90
                L 161.19 171.06
                L 207.24 157.90 L 207.24 157.90
                L 256.24 171.06
                L 276.32 157.90 L 276.32 157.90
                L 299.35 171.06
                L 345.4 157.90 L 345.4 157.90
                L 372.40 180.90
                L 414.47999999999996 157.90 L 414.48 157.90
                L 437.51 171.06
                L 483.56 157.90 L 483.56 157.90
                L 506.59 171.90
                L 552.64 157.90 L 552.64 157.90
                L 575.67 171.06
                L 621.72 157.90  V 552.64 H 0 V 157.90 Z" fill="#c03940"></path><path d="M 0 184.2133333333333 L 0 184.21
                L 23.03 202.21
                L 69.08 184.21 L 69.08 184.21
                L 119.08 197.37
                L 138.16 184.21 L 138.16 184.21
                L 184.16 199.21
                L 207.24 184.21 L 207.24 184.21
                L 230.27 197.37
                L 276.32 184.21 L 276.32 184.21
                L 304.32 207.21
                L 345.4 184.21 L 345.4 184.21
                L 376.40 197.37
                L 414.47999999999996 184.21 L 414.48 184.21
                L 437.51 199.21
                L 483.56 184.21 L 483.56 184.21
                L 506.59 198.21
                L 552.64 184.21 L 552.64 184.21
                L 583.64 197.37
                L 621.72 184.21  V 552.64 H 0 V 184.21 Z" fill="#b73646"></path><path d="M 0 210.5295238095238 L 0 210.53
                L 27.00 223.69
                L 69.08 210.53 L 69.08 210.53
                L 92.11 223.69
                L 138.16 210.53 L 138.16 210.53
                L 161.19 228.53
                L 207.24 210.53 L 207.24 210.53
                L 233.24 223.69
                L 276.32 210.53 L 276.32 210.53
                L 299.35 224.53
                L 345.4 210.53 L 345.4 210.53
                L 368.43 223.69
                L 414.47999999999996 210.53 L 414.48 210.53
                L 459.48 223.69
                L 483.56 210.53 L 483.56 210.53
                L 506.59 223.69
                L 552.64 210.53 L 552.64 210.53
                L 575.67 223.69
                L 621.72 210.53  V 552.64 H 0 V 210.53 Z" fill="#ae334c"></path><path d="M 0 236.84571428571428 L 0 236.85
                L 25.00 260.85
                L 69.08 236.85 L 69.08 236.85
                L 109.08 257.85
                L 138.16 236.85 L 138.16 236.85
                L 161.19 250.00
                L 207.24 236.85 L 207.24 236.85
                L 236.24 255.85
                L 276.32 236.85 L 276.32 236.85
                L 318.32 250.00
                L 345.4 236.85 L 345.4 236.85
                L 369.40 254.85
                L 414.47999999999996 236.85 L 414.48 236.85
                L 454.48 250.00
                L 483.56 236.85 L 483.56 236.85
                L 514.56 250.00
                L 552.64 236.85 L 552.64 236.85
                L 590.64 261.85
                L 621.72 236.85  V 552.64 H 0 V 236.85 Z" fill="#a53052"></path><path d="M 0 263.16190476190474 L 0 263.16
                L 24.00 277.16
                L 69.08 263.16 L 69.08 263.16
                L 92.11 288.16
                L 138.16 263.16 L 138.16 263.16
                L 181.16 276.32
                L 207.24 263.16 L 207.24 263.16
                L 231.24 277.16
                L 276.32 263.16 L 276.32 263.16
                L 306.32 288.16
                L 345.4 263.16 L 345.4 263.16
                L 368.43 276.32
                L 414.47999999999996 263.16 L 414.48 263.16
                L 449.48 278.16
                L 483.56 263.16 L 483.56 263.16
                L 512.56 276.32
                L 552.64 263.16 L 552.64 263.16
                L 583.64 276.32
                L 621.72 263.16  V 552.64 H 0 V 263.16 Z" fill="#9c2d58"></path><path d="M 0 289.4780952380952 L 0 289.48
                L 32.00 315.48
                L 69.08 289.48 L 69.08 289.48
                L 92.11 307.48
                L 138.16 289.48 L 138.16 289.48
                L 179.16 302.64
                L 207.24 289.48 L 207.24 289.48
                L 230.27 302.64
                L 276.32 289.48 L 276.32 289.48
                L 322.32 302.64
                L 345.4 289.48 L 345.4 289.48
                L 385.40 314.48
                L 414.47999999999996 289.48 L 414.48 289.48
                L 437.51 302.64
                L 483.56 289.48 L 483.56 289.48
                L 520.56 309.48
                L 552.64 289.48 L 552.64 289.48
                L 576.64 302.64
                L 621.72 289.48  V 552.64 H 0 V 289.48 Z" fill="#932a5e"></path><path d="M 0 315.7942857142857 L 0 315.79
                L 48.00 328.95
                L 69.08 315.79 L 69.08 315.79
                L 102.08 328.95
                L 138.16 315.79 L 138.16 315.79
                L 161.19 330.79
                L 207.24 315.79 L 207.24 315.79
                L 240.24 328.95
                L 276.32 315.79 L 276.32 315.79
                L 320.32 328.95
                L 345.4 315.79 L 345.4 315.79
                L 384.40 328.95
                L 414.47999999999996 315.79 L 414.48 315.79
                L 442.48 328.95
                L 483.56 315.79 L 483.56 315.79
                L 513.56 334.79
                L 552.64 315.79 L 552.64 315.79
                L 575.67 328.95
                L 621.72 315.79  V 552.64 H 0 V 315.79 Z" fill="#8a2764"></path><path d="M 0 342.11047619047616 L 0 342.11
                L 23.03 355.27
                L 69.08 342.11 L 69.08 342.11
                L 94.08 357.11
                L 138.16 342.11 L 138.16 342.11
                L 162.16 355.27
                L 207.24 342.11 L 207.24 342.11
                L 241.24 355.27
                L 276.32 342.11 L 276.32 342.11
                L 327.32 358.11
                L 345.4 342.11 L 345.4 342.11
                L 396.40 365.11
                L 414.47999999999996 342.11 L 414.48 342.11
                L 443.48 355.27
                L 483.56 342.11 L 483.56 342.11
                L 508.56 355.27
                L 552.64 342.11 L 552.64 342.11
                L 575.67 357.11
                L 621.72 342.11  V 552.64 H 0 V 342.11 Z" fill="#81246a"></path><path d="M 0 368.4266666666666 L 0 368.43
                L 23.03 381.58
                L 69.08 368.43 L 69.08 368.43
                L 93.08 381.58
                L 138.16 368.43 L 138.16 368.43
                L 161.19 381.58
                L 207.24 368.43 L 207.24 368.43
                L 248.24 382.43
                L 276.32 368.43 L 276.32 368.43
                L 326.32 392.43
                L 345.4 368.43 L 345.4 368.43
                L 369.40 388.43
                L 414.47999999999996 368.43 L 414.48 368.43
                L 437.51 386.43
                L 483.56 368.43 L 483.56 368.43
                L 508.56 386.43
                L 552.64 368.43 L 552.64 368.43
                L 596.64 381.58
                L 621.72 368.43  V 552.64 H 0 V 368.43 Z" fill="#782170"></path><path d="M 0 394.74285714285713 L 0 394.74
                L 47.00 407.90
                L 69.08 394.74 L 69.08 394.74
                L 112.08 407.90
                L 138.16 394.74 L 138.16 394.74
                L 183.16 409.74
                L 207.24 394.74 L 207.24 394.74
                L 230.27 407.90
                L 276.32 394.74 L 276.32 394.74
                L 313.32 411.74
                L 345.4 394.74 L 345.4 394.74
                L 372.40 412.74
                L 414.47999999999996 394.74 L 414.48 394.74
                L 437.51 408.74
                L 483.56 394.74 L 483.56 394.74
                L 506.59 412.74
                L 552.64 394.74 L 552.64 394.74
                L 575.67 410.74
                L 621.72 394.74  V 552.64 H 0 V 394.74 Z" fill="#6f1e76"></path><path d="M 0 421.0590476190476 L 0 421.06
                L 30.00 436.06
                L 69.08 421.06 L 69.08 421.06
                L 104.08 440.06
                L 138.16 421.06 L 138.16 421.06
                L 161.19 434.22
                L 207.24 421.06 L 207.24 421.06
                L 230.27 440.06
                L 276.32 421.06 L 276.32 421.06
                L 299.35 434.22
                L 345.4 421.06 L 345.4 421.06
                L 368.43 434.22
                L 414.47999999999996 421.06 L 414.48 421.06
                L 437.51 445.06
                L 483.56 421.06 L 483.56 421.06
                L 526.56 441.06
                L 552.64 421.06 L 552.64 421.06
                L 575.67 442.06
                L 621.72 421.06  V 552.64 H 0 V 421.06 Z" fill="#661b7c"></path><path d="M 0 447.37523809523805 L 0 447.38
                L 28.00 460.53
                L 69.08 447.38 L 69.08 447.38
                L 92.11 460.53
                L 138.16 447.38 L 138.16 447.38
                L 161.19 467.38
                L 207.24 447.38 L 207.24 447.38
                L 252.24 470.38
                L 276.32 447.38 L 276.32 447.38
                L 305.32 460.53
                L 345.4 447.38 L 345.4 447.38
                L 388.40 463.38
                L 414.47999999999996 447.38 L 414.48 447.38
                L 442.48 460.53
                L 483.56 447.38 L 483.56 447.38
                L 506.59 470.38
                L 552.64 447.38 L 552.64 447.38
                L 575.67 460.53
                L 621.72 447.38  V 552.64 H 0 V 447.38 Z" fill="#5d1882"></path><path d="M 0 473.69142857142856 L 0 473.69
                L 50.00 486.85
                L 69.08 473.69 L 69.08 473.69
                L 117.08 494.69
                L 138.16 473.69 L 138.16 473.69
                L 184.16 489.69
                L 207.24 473.69 L 207.24 473.69
                L 241.24 494.69
                L 276.32 473.69 L 276.32 473.69
                L 319.32 486.85
                L 345.4 473.69 L 345.4 473.69
                L 393.40 498.69
                L 414.47999999999996 473.69 L 414.48 473.69
                L 437.51 486.85
                L 483.56 473.69 L 483.56 473.69
                L 526.56 487.69
                L 552.64 473.69 L 552.64 473.69
                L 575.67 486.85
                L 621.72 473.69  V 552.64 H 0 V 473.69 Z" fill="#541588"></path><path d="M 0 500.007619047619 L 0 500.01
                L 51.00 513.17
                L 69.08 500.01 L 69.08 500.01
                L 112.08 520.01
                L 138.16 500.01 L 138.16 500.01
                L 177.16 523.01
                L 207.24 500.01 L 207.24 500.01
                L 230.27 519.01
                L 276.32 500.01 L 276.32 500.01
                L 312.32 519.01
                L 345.4 500.01 L 345.4 500.01
                L 368.43 518.01
                L 414.47999999999996 500.01 L 414.48 500.01
                L 437.51 513.17
                L 483.56 500.01 L 483.56 500.01
                L 512.56 513.17
                L 552.64 500.01 L 552.64 500.01
                L 595.64 513.17
                L 621.72 500.01  V 552.64 H 0 V 500.01 Z" fill="#4b128e"></path><path d="M 0 526.3238095238095 L 0 526.32
                L 23.03 551.32
                L 69.08 526.32 L 69.08 526.32
                L 93.08 545.32
                L 138.16 526.32 L 138.16 526.32
                L 161.19 539.48
                L 207.24 526.32 L 207.24 526.32
                L 247.24 541.32
                L 276.32 526.32 L 276.32 526.32
                L 302.32 539.48
                L 345.4 526.32 L 345.4 526.32
                L 379.40 543.32
                L 414.47999999999996 526.32 L 414.48 526.32
                L 457.48 548.32
                L 483.56 526.32 L 483.56 526.32
                L 507.56 539.48
                L 552.64 526.32 L 552.64 526.32
                L 575.67 540.32
                L 621.72 526.32  V 552.64 H 0 V 526.32 Z" fill="#420f94"></path></svg>